<mxfile host="app.diagrams.net" agent="Mozilla/5.0 (Macintosh; Intel Mac OS X 10_15_7) AppleWebKit/605.1.15 (KHTML, like Gecko) Version/17.5 Safari/605.1.15" version="26.0.2">
  <diagram name="Page-1" id="efa7a0a1-bf9b-a30e-e6df-94a7791c09e9">
    <mxGraphModel dx="1157" dy="802" grid="1" gridSize="10" guides="1" tooltips="1" connect="1" arrows="1" fold="1" page="1" pageScale="1" pageWidth="826" pageHeight="1169" background="none" math="0" shadow="0">
      <root>
        <mxCell id="0" />
        <mxCell id="1" parent="0" />
        <mxCell id="2_fUhFv4VgIgSvE_En3R-115" style="edgeStyle=orthogonalEdgeStyle;rounded=0;orthogonalLoop=1;jettySize=auto;html=1;entryX=0.5;entryY=0;entryDx=0;entryDy=0;" edge="1" parent="1" source="2_fUhFv4VgIgSvE_En3R-114" target="2_fUhFv4VgIgSvE_En3R-132">
          <mxGeometry relative="1" as="geometry">
            <mxPoint x="315" y="590" as="targetPoint" />
          </mxGeometry>
        </mxCell>
        <mxCell id="2_fUhFv4VgIgSvE_En3R-121" style="edgeStyle=orthogonalEdgeStyle;rounded=0;orthogonalLoop=1;jettySize=auto;html=1;exitX=1;exitY=0.5;exitDx=0;exitDy=0;exitPerimeter=0;entryX=0;entryY=0.5;entryDx=0;entryDy=0;" edge="1" parent="1" source="2_fUhFv4VgIgSvE_En3R-114" target="2_fUhFv4VgIgSvE_En3R-123">
          <mxGeometry relative="1" as="geometry">
            <mxPoint x="450" y="350" as="targetPoint" />
          </mxGeometry>
        </mxCell>
        <mxCell id="2_fUhFv4VgIgSvE_En3R-114" value="Main application,&amp;nbsp;&lt;div&gt;Strapi Server&lt;/div&gt;" style="html=1;whiteSpace=wrap;shape=isoCube2;backgroundOutline=1;isoAngle=15;" vertex="1" parent="1">
          <mxGeometry x="230" y="280" width="120" height="150" as="geometry" />
        </mxCell>
        <mxCell id="2_fUhFv4VgIgSvE_En3R-118" value="DNS:&amp;nbsp;&lt;div&gt;&lt;b&gt;&lt;font style=&quot;font-size: 14px;&quot;&gt;dev.navigateiq.ai&lt;/font&gt;&lt;/b&gt;&lt;/div&gt;" style="shape=partialRectangle;whiteSpace=wrap;html=1;left=0;right=0;fillColor=none;" vertex="1" parent="1">
          <mxGeometry x="150" y="800" width="120" height="60" as="geometry" />
        </mxCell>
        <mxCell id="2_fUhFv4VgIgSvE_En3R-124" style="edgeStyle=orthogonalEdgeStyle;rounded=0;orthogonalLoop=1;jettySize=auto;html=1;exitX=0.5;exitY=1;exitDx=0;exitDy=0;entryX=1;entryY=0.5;entryDx=0;entryDy=0;" edge="1" parent="1" source="2_fUhFv4VgIgSvE_En3R-122" target="2_fUhFv4VgIgSvE_En3R-123">
          <mxGeometry relative="1" as="geometry" />
        </mxCell>
        <mxCell id="2_fUhFv4VgIgSvE_En3R-126" style="edgeStyle=orthogonalEdgeStyle;rounded=0;orthogonalLoop=1;jettySize=auto;html=1;" edge="1" parent="1" source="2_fUhFv4VgIgSvE_En3R-122" target="2_fUhFv4VgIgSvE_En3R-125">
          <mxGeometry relative="1" as="geometry" />
        </mxCell>
        <mxCell id="2_fUhFv4VgIgSvE_En3R-127" value="Fetch data&lt;div&gt;periodically&lt;/div&gt;" style="edgeLabel;html=1;align=center;verticalAlign=middle;resizable=0;points=[];" vertex="1" connectable="0" parent="2_fUhFv4VgIgSvE_En3R-126">
          <mxGeometry x="-0.1707" y="-1" relative="1" as="geometry">
            <mxPoint as="offset" />
          </mxGeometry>
        </mxCell>
        <mxCell id="2_fUhFv4VgIgSvE_En3R-122" value="data fetch" style="label;whiteSpace=wrap;html=1;image=img/clipart/Gear_128x128.png" vertex="1" parent="1">
          <mxGeometry x="620" y="230" width="140" height="60" as="geometry" />
        </mxCell>
        <mxCell id="2_fUhFv4VgIgSvE_En3R-123" value="MySql" style="shape=datastore;whiteSpace=wrap;html=1;" vertex="1" parent="1">
          <mxGeometry x="460" y="285" width="70" height="140" as="geometry" />
        </mxCell>
        <mxCell id="2_fUhFv4VgIgSvE_En3R-125" value="Snowflake" style="ellipse;shape=cloud;whiteSpace=wrap;html=1;" vertex="1" parent="1">
          <mxGeometry x="430" y="30" width="210" height="110" as="geometry" />
        </mxCell>
        <mxCell id="2_fUhFv4VgIgSvE_En3R-130" style="edgeStyle=orthogonalEdgeStyle;rounded=0;orthogonalLoop=1;jettySize=auto;html=1;entryX=0.75;entryY=1;entryDx=0;entryDy=0;dashed=1;dashPattern=8 8;shape=link;fillColor=#008a00;strokeColor=#005700;" edge="1" parent="1" source="2_fUhFv4VgIgSvE_En3R-129" target="2_fUhFv4VgIgSvE_En3R-122">
          <mxGeometry relative="1" as="geometry" />
        </mxCell>
        <mxCell id="2_fUhFv4VgIgSvE_En3R-129" value="Swap/Backup&lt;div&gt;databases&lt;/div&gt;" style="shape=process;whiteSpace=wrap;html=1;backgroundOutline=1;dashed=1;strokeColor=#00CC00;" vertex="1" parent="1">
          <mxGeometry x="670" y="390" width="120" height="60" as="geometry" />
        </mxCell>
        <mxCell id="2_fUhFv4VgIgSvE_En3R-136" style="edgeStyle=orthogonalEdgeStyle;rounded=0;orthogonalLoop=1;jettySize=auto;html=1;entryX=0.5;entryY=0;entryDx=0;entryDy=0;" edge="1" parent="1" source="2_fUhFv4VgIgSvE_En3R-132" target="2_fUhFv4VgIgSvE_En3R-135">
          <mxGeometry relative="1" as="geometry" />
        </mxCell>
        <mxCell id="2_fUhFv4VgIgSvE_En3R-132" value="WEB APP&lt;div&gt;NextJS&lt;/div&gt;" style="rounded=0;whiteSpace=wrap;html=1;" vertex="1" parent="1">
          <mxGeometry x="190" y="540" width="120" height="50" as="geometry" />
        </mxCell>
        <mxCell id="2_fUhFv4VgIgSvE_En3R-137" style="edgeStyle=orthogonalEdgeStyle;rounded=0;orthogonalLoop=1;jettySize=auto;html=1;entryX=0.75;entryY=0;entryDx=0;entryDy=0;" edge="1" parent="1" source="2_fUhFv4VgIgSvE_En3R-135" target="2_fUhFv4VgIgSvE_En3R-118">
          <mxGeometry relative="1" as="geometry" />
        </mxCell>
        <mxCell id="2_fUhFv4VgIgSvE_En3R-135" value="PROXY" style="rounded=0;whiteSpace=wrap;html=1;" vertex="1" parent="1">
          <mxGeometry x="180" y="660" width="120" height="60" as="geometry" />
        </mxCell>
      </root>
    </mxGraphModel>
  </diagram>
</mxfile>
